<svg width="154" height="147" viewBox="0 0 154 147" fill="none" xmlns="http://www.w3.org/2000/svg" xmlns:xlink="http://www.w3.org/1999/xlink">

  <defs>
    <!-- Smooth pink–purple–peach gradient -->
    <linearGradient id="birdGradient" x1="0%" y1="0%" x2="100%" y2="100%">
      <stop offset="0%" stop-color="#F7C9A8"/>
      <stop offset="40%" stop-color="#D27BFF"/>
      <stop offset="100%" stop-color="#E3A1C3"/>
    </linearGradient>
  </defs>

  <path d="M48.127 27.6957C47.5106 28.6058 46.9656 29.5499 46.4206 30.4939C29.7403 59.3849 31.774 104.947 70.617 127.373C82.5841 134.282 95.7721 137.115 108.724 136.288C106.909 135.508 105.232 134.633 103.464 133.613C93.5898 127.912 86.4941 119.214 82.6297 109.134C92.0329 114.296 103.449 112.495 111.133 105.386C109.711 104.833 108.322 104.212 106.948 103.418C105.055 102.325 103.308 100.955 101.813 99.4627C112.671 103.026 125.001 98.4181 131.134 87.7949L131.291 87.5236C127.538 87.52 123.685 86.6483 120.146 84.7857C128.097 84.1535 135.695 79.6056 140.071 72.0261C142.414 67.9678 143.519 63.6434 143.562 59.3422C125.51 66.593 104.875 66.232 86.8012 57.063C88.066 55.623 89.2395 54.0508 90.2168 52.358C97.1708 40.3133 93.4159 25.0662 81.7111 18.3084C75.6279 14.7963 68.615 14.2631 62.2932 16.2992C58.0693 12.5946 54.552 8.12601 51.9372 3.28141C50.5763 9.25957 51.4547 15.4527 54.2705 20.6881C50.2931 17.7552 46.8729 14.1602 44.064 10.2814C44.4381 16.2702 45.8032 22.2017 48.127 27.6957Z"
        fill="url(#birdGradient)"/>

  <!-- Made fully white -->
  <ellipse cx="38.0462" cy="117.888" rx="8.48648" ry="5.44344" transform="rotate(-70 38.0462 117.888)" fill="white"/>
  <circle cx="35.2611" cy="130.388" r="2.5" fill="white"/>

</svg>
